<svg xmlns="http://www.w3.org/2000/svg" viewBox="0 0 32 32">
  <!-- Ocean background -->
  <circle cx="16" cy="16" r="15" fill="#2563eb"/>
  <!-- Latitude lines -->
  <ellipse cx="16" cy="16" rx="15" ry="5.5" fill="none" stroke="rgba(255,255,255,0.5)" stroke-width="0.8"/>
  <ellipse cx="16" cy="10" rx="11" ry="3.5" fill="none" stroke="rgba(255,255,255,0.4)" stroke-width="0.6"/>
  <ellipse cx="16" cy="22" rx="11" ry="3.5" fill="none" stroke="rgba(255,255,255,0.4)" stroke-width="0.6"/>
  <!-- Vertical meridian -->
  <line x1="16" y1="1" x2="16" y2="31" stroke="rgba(255,255,255,0.5)" stroke-width="0.8"/>
  <!-- Land masses (simplified) -->
  <path d="M10 13 Q12 11 15 12 Q17 10 19 12 Q21 11 22 14 Q20 16 17 15 Q14 17 11 15 Z" fill="#4ade80" opacity="0.85"/>
  <path d="M9 18 Q11 17 13 18 Q12 21 10 20 Z" fill="#4ade80" opacity="0.75"/>
  <path d="M19 17 Q22 16 23 19 Q21 21 19 20 Z" fill="#4ade80" opacity="0.75"/>
  <!-- Outer ring -->
  <circle cx="16" cy="16" r="15" fill="none" stroke="rgba(255,255,255,0.3)" stroke-width="0.8"/>
</svg>
